{
    "accessors" : [
        {
            "bufferView" : 0,
            "componentType" : 5125,
            "count" : 239610,
            "max" : [
                235408
            ],
            "min" : [
                0
            ],
            "type" : "SCALAR"
        },
        {
            "bufferView" : 1,
            "componentType" : 5126,
            "count" : 235409,
            "max" : [
                50.0,
                33.316009521484375,
                21.86225128173828
            ],
            "min" : [
                -50.0,
                -33.316009521484375,
                -0.0
            ],
            "type" : "VEC3"
        },
        {
            "bufferView" : 2,
            "componentType" : 5126,
            "count" : 235409,
            "max" : [
                0.9997828602790833,
                0.9997822046279907,
                -0.01500420831143856
            ],
            "min" : [
                -0.9997788667678833,
                -0.9997780919075012,
                -1.0
            ],
            "type" : "VEC3"
        },
        {
            "bufferView" : 3,
            "componentType" : 5126,
            "count" : 2,
            "max" : [
                14.958333333333334
            ],
            "min" : [
                0.0
            ],
            "type" : "SCALAR"
        },
        {
            "bufferView" : 4,
            "componentType" : 5126,
            "count" : 2,
            "max" : [
                0.7071068286895752,
                0.0,
                0.006170664913952351,
                0.7071067094802856
            ],
            "min" : [
                0.7070798873901367,
                -0.006170663982629776,
                -0.0,
                0.7070798277854919
            ],
            "type" : "VEC4"
        }
    ],
    "animations" : [
        {
            "channels" : [
                {
                    "sampler" : 0,
                    "target" : {
                        "node" : 2,
                        "path" : "rotation"
                    }
                }
            ],
            "name" : "ObjectAction.001",
            "samplers" : [
                {
                    "input" : 3,
                    "interpolation" : "LINEAR",
                    "output" : 4
                }
            ]
        }
    ],
    "asset" : {
        "generator" : "Khronos Blender glTF 2.0 exporter",
        "version" : "2.0"
    },
    "bufferViews" : [
        {
            "buffer" : 0,
            "byteLength" : 958440,
            "byteOffset" : 0,
            "target" : 34963
        },
        {
            "buffer" : 0,
            "byteLength" : 2824908,
            "byteOffset" : 958440,
            "target" : 34962
        },
        {
            "buffer" : 0,
            "byteLength" : 2824908,
            "byteOffset" : 3783348,
            "target" : 34962
        },
        {
            "buffer" : 0,
            "byteLength" : 8,
            "byteOffset" : 6608256
        },
        {
            "buffer" : 0,
            "byteLength" : 32,
            "byteOffset" : 6608264
        }
    ],
    "buffers" : [
        {
            "byteLength" : 6608296,
            "uri" : "100_Box4_mtw_ani.bin"
        }
    ],
    "images" : [
        {
            "name" : "1_mtw_utm_0",
            "uri" : "1_mtw_utm_0.png"
        }
    ],
    "materials" : [
        {
            "name" : "material_ffffff",
            "pbrMetallicRoughness" : {
                "baseColorTexture" : {
                    "index" : 0
                },
                "metallicFactor" : 0.0
            }
        }
    ],
    "meshes" : [
        {
            "name" : "object",
            "primitives" : [
                {
                    "attributes" : {
                        "NORMAL" : 2,
                        "POSITION" : 1
                    },
                    "indices" : 0,
                    "material" : 0
                }
            ]
        }
    ],
    "nodes" : [
        {
            "name" : "Camera",
            "rotation" : [
                0.055797699838876724,
                0.9237362146377563,
                -0.3788740038871765,
                0.0072607919573783875
            ],
            "translation" : [
                1.4725850820541382,
                11.077163696289062,
                -13.289393424987793
            ]
        },
        {
            "name" : "Lamp",
            "rotation" : [
                0.16907575726509094,
                0.7558802962303162,
                -0.27217137813568115,
                0.570947527885437
            ],
            "scale" : [
                1.0,
                1.0,
                0.9999999403953552
            ],
            "translation" : [
                4.076245307922363,
                5.903861999511719,
                -1.0054539442062378
            ]
        },
        {
            "mesh" : 0,
            "name" : "Object",
            "rotation" : [
                -0.7071067094802856,
                0.0,
                -0.0,
                0.70710688829422
            ],
            "scale" : [
                -0.10000000149011612,
                -0.10000000149011612,
                -0.10000000149011612
            ]
        }
    ],
    "samplers" : [
        {},
        {
            "magFilter" : 9729,
            "minFilter" : 9986,
            "wrapS" : 33071,
            "wrapT" : 33071
        }
    ],
    "scene" : 0,
    "scenes" : [
        {
            "name" : "Scene",
            "nodes" : [
                2,
                1,
                0
            ]
        }
    ],
    "textures" : [
        {
            "sampler" : 1,
            "source" : 0
        }
    ]
}
