{
    "accessors" : [
        {
            "bufferView" : 0,
            "componentType" : 5125,
            "count" : 239610,
            "max" : [
                235408
            ],
            "min" : [
                0
            ],
            "type" : "SCALAR"
        },
        {
            "bufferView" : 1,
            "componentType" : 5126,
            "count" : 235409,
            "max" : [
                50.0,
                33.316009521484375,
                21.86225128173828
            ],
            "min" : [
                -50.0,
                -33.316009521484375,
                -0.0
            ],
            "type" : "VEC3"
        },
        {
            "bufferView" : 2,
            "componentType" : 5126,
            "count" : 235409,
            "max" : [
                0.9997828602790833,
                0.9997822046279907,
                -0.01500420831143856
            ],
            "min" : [
                -0.9997788667678833,
                -0.9997780919075012,
                -1.0
            ],
            "type" : "VEC3"
        }
    ],
    "animations" : [],
    "asset" : {
        "generator" : "Khronos Blender glTF 2.0 exporter",
        "version" : "2.0"
    },
    "bufferViews" : [
        {
            "buffer" : 0,
            "byteLength" : 958440,
            "byteOffset" : 0,
            "target" : 34963
        },
        {
            "buffer" : 0,
            "byteLength" : 2824908,
            "byteOffset" : 958440,
            "target" : 34962
        },
        {
            "buffer" : 0,
            "byteLength" : 2824908,
            "byteOffset" : 3783348,
            "target" : 34962
        }
    ],
    "buffers" : [
        {
            "byteLength" : 6608256,
            "uri" : "101_Box4_mtw_grd01.bin"
        }
    ],
    "meshes" : [
        {
            "name" : "object",
            "primitives" : [
                {
                    "attributes" : {
                        "NORMAL" : 2,
                        "POSITION" : 1
                    },
                    "indices" : 0
                }
            ]
        }
    ],
    "nodes" : [
        {
            "name" : "Camera",
            "rotation" : [
                0.055797699838876724,
                0.9237362146377563,
                -0.3788740038871765,
                0.0072607919573783875
            ],
            "translation" : [
                1.4725850820541382,
                11.077163696289062,
                -13.289393424987793
            ]
        },
        {
            "name" : "Lamp",
            "rotation" : [
                0.16907575726509094,
                0.7558802962303162,
                -0.27217137813568115,
                0.570947527885437
            ],
            "scale" : [
                1.0,
                1.0,
                0.9999999403953552
            ],
            "translation" : [
                4.076245307922363,
                5.903861999511719,
                -1.0054539442062378
            ]
        },
        {
            "mesh" : 0,
            "name" : "Object",
            "rotation" : [
                -0.7070798277854919,
                -0.006170664913952351,
                -0.006170663516968489,
                0.7070798873901367
            ],
            "scale" : [
                -0.10000000149011612,
                -0.10000000149011612,
                -0.10000000149011612
            ]
        }
    ],
    "scene" : 0,
    "scenes" : [
        {
            "name" : "Scene",
            "nodes" : [
                2,
                1,
                0
            ]
        }
    ]
}
