{
    "accessors" : [
        {
            "bufferView" : 0,
            "componentType" : 5125,
            "count" : 158502,
            "max" : [
                158501
            ],
            "min" : [
                0
            ],
            "type" : "SCALAR"
        },
        {
            "bufferView" : 1,
            "componentType" : 5126,
            "count" : 158502,
            "max" : [
                102601.40625,
                -9996.708984375,
                17400.0
            ],
            "min" : [
                29999.134765625,
                -145801.625,
                7673.0498046875
            ],
            "type" : "VEC3"
        },
        {
            "bufferView" : 2,
            "componentType" : 5126,
            "count" : 158502,
            "max" : [
                1.0,
                1.0,
                1.0
            ],
            "min" : [
                -1.0,
                -1.0,
                -1.0
            ],
            "type" : "VEC3"
        },
        {
            "bufferView" : 3,
            "componentType" : 5126,
            "count" : 158502,
            "max" : [
                0.9215818608403176,
                0.723055143885277,
                1.0,
                1.0
            ],
            "min" : [
                0.04373502966392511,
                0.0012141080059964592,
                0.019382362329280322,
                1.0
            ],
            "type" : "VEC4"
        }
    ],
    "asset" : {
        "generator" : "Khronos Blender glTF 2.0 exporter",
        "version" : "2.0"
    },
    "bufferViews" : [
        {
            "buffer" : 0,
            "byteLength" : 634008,
            "byteOffset" : 0,
            "target" : 34963
        },
        {
            "buffer" : 0,
            "byteLength" : 1902024,
            "byteOffset" : 634008,
            "target" : 34962
        },
        {
            "buffer" : 0,
            "byteLength" : 1902024,
            "byteOffset" : 2536032,
            "target" : 34962
        },
        {
            "buffer" : 0,
            "byteLength" : 2536032,
            "byteOffset" : 4438056,
            "target" : 34962
        }
    ],
    "buffers" : [
        {
            "byteLength" : 6974088,
            "uri" : "IFZ01.bin"
        }
    ],
    "materials" : [
        {
            "name" : "Shape",
            "pbrMetallicRoughness" : {
                "baseColorFactor" : [
                    0.800000011920929,
                    0.800000011920929,
                    0.800000011920929,
                    1.0
                ],
                "metallicFactor" : 0.0
            }
        }
    ],
    "meshes" : [
        {
            "name" : "Shape_IndexedFaceSet",
            "primitives" : [
                {
                    "attributes" : {
                        "COLOR_0" : 3,
                        "NORMAL" : 2,
                        "POSITION" : 1
                    },
                    "indices" : 0,
                    "material" : 0
                }
            ]
        }
    ],
    "nodes" : [
        {
            "name" : "Camera",
            "rotation" : [
                0.483536034822464,
                0.33687159419059753,
                -0.20870360732078552,
                0.7804827094078064
            ],
            "translation" : [
                7.856760025024414,
                7.110262393951416,
                6.670157432556152
            ]
        },
        {
            "name" : "DirectLight",
            "rotation" : [
                -3.090862321641907e-08,
                0.7071067094802856,
                -0.7071068286895752,
                -3.0908616110991716e-08
            ]
        },
        {
            "name" : "DirectLight.002",
            "rotation" : [
                -0.0029872998129576445,
                0.12847429513931274,
                -0.99144047498703,
                0.023052271455526352
            ]
        },
        {
            "name" : "DirectLight.003",
            "rotation" : [
                0.12278773635625839,
                0.1227877289056778,
                0.6963642239570618,
                0.6963642835617065
            ],
            "scale" : [
                1.0,
                0.9999999403953552,
                0.9999999403953552
            ]
        },
        {
            "name" : "DirectLight.004",
            "rotation" : [
                0.12278773635625839,
                -0.1227877289056778,
                -0.6963642239570618,
                0.6963642835617065
            ],
            "scale" : [
                1.0,
                0.9999999403953552,
                0.9999999403953552
            ]
        },
        {
            "name" : "Lamp",
            "rotation" : [
                0.16907575726509094,
                0.7558802962303162,
                -0.27217137813568115,
                0.570947527885437
            ],
            "scale" : [
                1.0,
                1.0,
                0.9999999403953552
            ],
            "translation" : [
                4.076245307922363,
                5.903861999511719,
                -1.0054539442062378
            ]
        },
        {
            "mesh" : 0,
            "name" : "Shape_IndexedFaceSet",
            "rotation" : [
                0.7071068286895752,
                0.0,
                -0.0,
                0.7071067094802856
            ],
            "scale" : [
                4.999999873689376e-05,
                4.999999873689376e-05,
                4.999999873689376e-05
            ],
            "translation" : [
                -4.0,
                2.0,
                4.0
            ]
        },
        {
            "name" : "Viewpoint",
            "rotation" : [
                0.43686679005622864,
                -0.4126242399215698,
                0.18592160940170288,
                0.777381420135498
            ],
            "scale" : [
                0.9999999403953552,
                1.0,
                1.0000001192092896
            ],
            "translation" : [
                -201460.0,
                97676.3984375,
                194041.0
            ]
        }
    ],
    "scene" : 0,
    "scenes" : [
        {
            "name" : "Scene",
            "nodes" : [
                6,
                4,
                3,
                2,
                1,
                7,
                5,
                0
            ]
        }
    ]
}
